<?xml version="1.0" encoding="UTF-8" standalone="no"?>
<svg
   xmlns:dc="http://purl.org/dc/elements/1.1/"
   xmlns:cc="http://creativecommons.org/ns#"
   xmlns:rdf="http://www.w3.org/1999/02/22-rdf-syntax-ns#"
   xmlns:svg="http://www.w3.org/2000/svg"
   xmlns="http://www.w3.org/2000/svg"
   id="svg8"
   version="1.1"
   viewBox="0 0 4.2333333 4.2333335"
   height="16"
   width="16">
  <defs
     id="defs2" />
  <metadata
     id="metadata5">
    <rdf:RDF>
      <cc:Work
         rdf:about="">
        <dc:format>image/svg+xml</dc:format>
        <dc:type
           rdf:resource="http://purl.org/dc/dcmitype/StillImage" />
        <dc:title></dc:title>
      </cc:Work>
    </rdf:RDF>
  </metadata>
  <g
     transform="translate(-3.5000003e-8,-11.613785)"
     id="layer1">
    <path
       transform="matrix(0.26458334,0,0,0.26458334,0,11.249983)"
       d="m 3,7.3749996 -1,1 L 2.8346459e-8,14.374999 6,15.374999 l 1,1 h 2 l 1,-1 6,-1 -2,-5.9999994 -1,-1 -1,0.25 v 1 l 1,-0.25 1,3.9999994 -5,1 -1,1 1,1 H 7 l 1,-1 -1,-1 -5,-1 1,-3.9999994 1,0.25 v -1 z"
       style="opacity:1;fill:#ffffff;fill-opacity:1;stroke:none;stroke-width:0.999999px;stroke-linecap:butt;stroke-linejoin:miter;stroke-opacity:1"
       id="path832" />
    <path
       id="path842"
       d="m 1.3229167,11.779149 v 2.645834 l 0.5291667,-0.264584 v -2.116666 z"
       style="fill:#ffffff;fill-opacity:1;stroke:none;stroke-width:0.264582px;stroke-linecap:butt;stroke-linejoin:miter;stroke-opacity:1" />
    <path
       style="fill:#ffffff;fill-opacity:1;stroke:none;stroke-width:0.264582px;stroke-linecap:butt;stroke-linejoin:miter;stroke-opacity:1"
       d="m 2.38125,12.043733 v 0.529166 L 1.8520834,13.102066 2.38125,13.631233 v 0.529166 l 0.5291667,0.264584 V 13.366649 L 2.38125,13.102066 2.9104167,12.837483 v -1.058334 z"
       id="path844" />
  </g>
</svg>
