<?xml version="1.0" standalone="no"?>
<!DOCTYPE svg PUBLIC "-//W3C//DTD SVG 20010904//EN"
 "http://www.w3.org/TR/2001/REC-SVG-20010904/DTD/svg10.dtd">
<svg version="1.0" xmlns="http://www.w3.org/2000/svg"
 width="700.000000pt" height="700.000000pt" viewBox="0 0 700.000000 700.000000"
 preserveAspectRatio="xMidYMid meet">
<metadata>
Created by potrace 1.14, written by Peter Selinger 2001-2017
</metadata>
<g transform="translate(0.000000,700.000000) scale(0.100000,-0.100000)"
fill="#000000" stroke="none">
<path d="M2189 6663 c0 -75 0 -4284 0 -4299 1 -7 198 87 439 207 l437 219 -1
870 c0 479 1 870 4 870 3 0 199 -195 437 -432 l432 -433 0 -433 c0 -239 4
-437 9 -442 5 -5 201 -105 437 -223 412 -206 427 -213 428 -188 2 110 0 1723
-3 1725 -2 2 -195 99 -430 216 -236 118 -428 216 -428 220 0 3 194 102 430
220 393 197 430 217 431 240 5 243 2 1720 -4 1720 -20 0 -867 -432 -868 -443
0 -6 -1 -204 -1 -438 l-1 -427 -437 -437 -437 -436 -1 858 c0 472 -1 866 -1
875 -1 13 -117 76 -431 233 -236 118 -432 215 -435 215 -3 0 -5 -26 -6 -57z"/>
<path d="M1089 4152 l-216 -217 -436 -1310 c-240 -720 -435 -1310 -434 -1311
2 -2 191 -35 227 -39 14 -2 558 -93 1210 -201 l1185 -198 211 -212 c116 -117
220 -216 230 -221 11 -5 211 -8 445 -7 l425 1 221 220 220 220 144 22 c79 13
153 25 164 27 11 2 76 13 145 24 69 12 134 22 145 24 99 18 146 26 180 31 22
3 63 10 90 15 28 5 64 11 80 14 36 5 150 24 185 31 14 2 41 6 60 9 19 2 46 7
60 10 14 3 41 8 60 11 19 2 46 7 60 9 14 3 41 7 60 10 19 3 44 7 55 9 40 8 91
17 130 22 42 6 130 21 180 30 17 3 46 8 65 11 36 5 65 10 110 18 14 3 84 14
155 26 72 12 141 23 155 26 14 2 41 7 60 10 19 3 46 7 60 10 14 2 36 6 50 8
149 25 170 31 167 40 -2 6 -158 475 -347 1041 -188 567 -345 1039 -350 1050
-5 11 -45 133 -91 270 l-83 250 -218 220 -218 219 -117 -29 c-65 -16 -120 -30
-123 -30 -3 -1 -49 -12 -102 -25 l-98 -24 0 -219 0 -219 28 7 c15 4 113 28
219 54 l191 48 32 -126 c17 -69 33 -133 35 -141 2 -8 15 -62 30 -120 15 -58
29 -113 31 -124 2 -10 15 -64 30 -120 14 -55 27 -108 29 -116 2 -8 29 -116 60
-240 31 -124 58 -232 60 -240 2 -8 13 -53 24 -100 12 -47 24 -96 27 -110 3
-14 9 -39 15 -56 5 -17 11 -40 13 -50 2 -10 14 -57 26 -103 11 -46 19 -89 16
-96 -2 -7 -49 -21 -103 -31 -54 -9 -102 -19 -108 -20 -13 -3 -1112 -224 -1145
-230 -21 -4 -387 -77 -445 -89 -11 -2 -90 -18 -175 -35 -85 -18 -166 -34 -180
-37 -26 -4 -450 -418 -450 -439 0 -6 94 -105 210 -220 115 -115 210 -211 210
-214 0 -3 -193 -5 -430 -5 -236 0 -430 2 -430 5 0 3 97 101 215 219 l215 214
-217 218 -218 218 -505 102 c-594 119 -484 97 -770 154 -129 26 -244 49 -255
51 -11 2 -42 8 -70 14 -27 5 -61 12 -75 15 -65 13 -127 26 -150 30 -14 3 -36
7 -50 10 -14 3 -36 7 -50 10 -139 25 -247 49 -254 56 -5 4 5 61 23 134 18 70
34 134 36 143 2 9 13 55 25 102 12 47 23 92 25 100 2 8 13 53 25 100 12 47 24
92 26 100 11 45 26 107 29 120 2 8 11 43 20 77 9 35 18 72 21 83 6 28 5 24 79
320 37 146 68 272 70 280 16 79 49 189 55 185 3 -2 20 -7 36 -9 16 -3 83 -20
149 -37 66 -17 136 -34 155 -39 19 -4 47 -11 63 -15 l27 -7 0 218 0 219 -208
53 c-114 28 -214 52 -222 52 -8 0 -112 -98 -231 -218z"/>
</g>
</svg>
