<?xml version="1.0" standalone="no"?>
<!DOCTYPE svg PUBLIC "-//W3C//DTD SVG 20010904//EN"
 "http://www.w3.org/TR/2001/REC-SVG-20010904/DTD/svg10.dtd">
<svg version="1.0" xmlns="http://www.w3.org/2000/svg"
 width="700.000000pt" height="700.000000pt" viewBox="0 0 700.000000 700.000000"
 preserveAspectRatio="xMidYMid meet">
<metadata>
Created by potrace 1.14, written by Peter Selinger 2001-2017
</metadata>
<g transform="translate(0.000000,700.000000) scale(0.100000,-0.100000)"
fill="#000000" stroke="none">
<path d="M2186 4379 c1 -1199 3 -2182 6 -2184 3 -3 856 420 867 430 2 3 4 396
4 875 0 681 3 867 12 860 7 -6 204 -202 438 -436 l425 -426 -1 -435 -1 -436
435 -218 c239 -119 436 -216 437 -214 3 3 5 1592 3 1717 -1 26 -24 39 -433
244 -238 119 -434 217 -435 218 -1 1 193 100 432 219 317 159 435 222 436 235
2 82 0 1724 -3 1727 -3 3 -858 -422 -867 -431 -2 -2 -4 -196 -3 -431 0 -331
-3 -433 -13 -448 -10 -17 -854 -865 -860 -865 -1 0 -2 392 -2 870 0 479 -2
872 -4 875 -5 5 -865 435 -870 435 -2 0 -3 -981 -3 -2181z"/>
<path d="M1093 3717 l-221 -222 -263 -790 c-145 -434 -264 -794 -265 -800 -2
-5 -79 -238 -173 -517 -93 -279 -166 -510 -163 -512 8 -4 56 -13 117 -21 22
-3 51 -8 65 -11 14 -2 37 -7 53 -9 15 -3 39 -7 55 -10 15 -2 38 -7 52 -9 14
-3 43 -8 65 -11 22 -3 47 -7 55 -10 8 -2 38 -6 65 -10 28 -3 59 -8 70 -10 23
-6 55 -11 145 -25 36 -6 76 -13 90 -15 14 -2 54 -9 90 -15 36 -5 76 -12 90
-15 14 -2 52 -9 85 -14 33 -6 69 -12 80 -14 11 -3 41 -7 66 -11 49 -7 48 -7
189 -31 178 -30 195 -32 240 -40 19 -3 46 -7 60 -10 14 -3 41 -7 60 -10 19 -3
46 -7 60 -10 14 -2 45 -7 70 -11 24 -3 47 -7 50 -9 3 -2 33 -7 65 -10 33 -4
62 -9 65 -10 3 -2 24 -6 46 -9 22 -4 49 -8 61 -10 12 -3 43 -8 70 -12 26 -3
57 -8 68 -10 11 -2 34 -6 50 -9 17 -3 41 -7 55 -10 14 -3 41 -7 60 -10 79 -13
93 -16 109 -25 9 -5 110 -104 225 -219 l209 -211 437 0 437 0 218 219 219 219
76 12 c41 7 86 14 100 16 14 2 41 7 60 10 19 4 44 8 55 10 11 2 34 5 50 8 50
8 106 17 128 22 12 2 39 6 62 9 22 3 76 12 120 20 44 8 94 17 110 19 17 3 75
13 130 22 55 9 109 18 120 19 36 6 149 25 175 30 13 2 42 7 65 10 22 3 63 10
90 15 28 5 66 12 85 15 19 3 58 10 85 15 28 5 70 12 95 15 25 3 59 9 75 12 36
6 60 11 100 17 17 2 45 7 63 10 47 9 116 20 212 35 36 6 76 13 90 16 13 2 42
7 64 11 22 3 43 7 46 9 3 1 32 6 65 10 32 3 62 8 65 10 3 2 30 6 60 10 29 3
56 8 59 9 3 2 31 7 61 11 30 4 56 8 57 9 1 1 -194 591 -433 1312 l-436 1309
-220 221 -220 221 -177 -43 c-97 -24 -195 -49 -218 -55 l-43 -12 0 -219 c0
-204 1 -219 18 -214 9 3 100 26 202 51 102 25 192 48 201 51 14 4 49 -126 234
-866 120 -479 215 -873 212 -876 -6 -6 -99 -27 -170 -39 -18 -3 -39 -8 -47
-10 -8 -2 -28 -7 -45 -9 -16 -3 -174 -35 -350 -70 -176 -36 -333 -67 -350 -70
-16 -3 -131 -26 -255 -51 -124 -25 -238 -48 -255 -51 -16 -2 -37 -7 -45 -9 -8
-2 -31 -7 -50 -10 -19 -3 -42 -8 -50 -10 -8 -2 -28 -7 -45 -10 -33 -5 -29 -4
-210 -41 -71 -14 -139 -28 -150 -30 -11 -2 -51 -10 -89 -18 l-70 -15 -218
-218 -218 -218 -223 223 c-131 130 -231 222 -243 223 -10 0 -26 2 -34 4 -8 1
-51 10 -95 19 -44 9 -89 18 -100 20 -16 3 -330 66 -400 80 -172 35 -375 76
-395 79 -14 3 -126 25 -250 50 -124 26 -238 49 -255 52 -136 24 -618 125 -622
129 -4 3 31 153 76 333 46 181 84 335 86 343 8 39 266 1065 268 1067 3 2 376
-89 415 -101 l22 -7 0 220 c0 122 -1 221 -3 221 -1 0 -83 20 -182 45 -99 25
-193 48 -209 51 -16 2 -32 7 -36 9 -3 2 -106 -96 -227 -218z m2626 -3061 c126
-126 207 -215 199 -217 -10 -4 -806 -3 -843 0 -10 1 415 431 425 431 3 0 101
-96 219 -214z"/>
</g>
</svg>
