<?xml version="1.0" encoding="UTF-8" standalone="no"?>
<svg
   xmlns:dc="http://purl.org/dc/elements/1.1/"
   xmlns:cc="http://creativecommons.org/ns#"
   xmlns:rdf="http://www.w3.org/1999/02/22-rdf-syntax-ns#"
   xmlns:svg="http://www.w3.org/2000/svg"
   xmlns="http://www.w3.org/2000/svg"
   id="svg8"
   version="1.1"
   viewBox="0 0 4.2333333 4.2333335"
   height="16"
   width="16">
  <defs
     id="defs2" />
  <metadata
     id="metadata5">
    <rdf:RDF>
      <cc:Work
         rdf:about="">
        <dc:format>image/svg+xml</dc:format>
        <dc:type
           rdf:resource="http://purl.org/dc/dcmitype/StillImage" />
        <dc:title></dc:title>
      </cc:Work>
    </rdf:RDF>
  </metadata>
  <g
     transform="translate(0,-11.249983)"
     id="layer1">
    <path
       transform="matrix(0.26458334,0,0,0.26458334,0,11.249983)"
       d="M 3 7 L 2 8 L 0 14 L 6 15 L 7 16 L 9 16 L 10 15 L 16 14 L 14 8 L 13 7 L 12 7.25 L 12 8.25 L 13 8 L 14 12 L 9 13 L 8 14 L 9 15 L 7 15 L 8 14 L 7 13 L 2 12 L 3 8 L 4 8.25 L 4 7.25 L 3 7 z "
       style="opacity:1;fill:#ffffff;fill-opacity:1;stroke:none;stroke-width:0.999999px;stroke-linecap:butt;stroke-linejoin:miter;stroke-opacity:1"
       id="path832" />
    <path
       id="path842"
       d="M 1.3229167,11.514566 V 14.1604 L 1.8520834,13.895816 V 11.77915 Z"
       style="fill:#ffffff;fill-opacity:1;stroke:none;stroke-width:0.264582px;stroke-linecap:butt;stroke-linejoin:miter;stroke-opacity:1" />
    <path
       style="fill:#ffffff;fill-opacity:1;stroke:none;stroke-width:0.264582px;stroke-linecap:butt;stroke-linejoin:miter;stroke-opacity:1"
       d="m 2.38125,11.77915 v 0.529166 L 1.8520834,12.837483 2.38125,13.36665 v 0.529166 L 2.9104167,14.1604 V 13.102066 L 2.38125,12.837483 2.9104167,12.5729 v -1.058334 z"
       id="path844" />
  </g>
</svg>
